<?xml version="1.0" standalone="no"?>
<!DOCTYPE svg PUBLIC "-//W3C//DTD SVG 20010904//EN"
 "http://www.w3.org/TR/2001/REC-SVG-20010904/DTD/svg10.dtd">
<svg version="1.0" xmlns="http://www.w3.org/2000/svg"
 width="700.000000pt" height="700.000000pt" viewBox="0 0 700.000000 700.000000"
 preserveAspectRatio="xMidYMid meet">

<g transform="translate(0.000000,700.000000) scale(0.100000,-0.100000)"
fill="#000000" stroke="none">
<path d="M5865 3505 c0 -1298 1 -1828 2 -1177 2 651 2 1713 0 2360 -1 647 -2
115 -2 -1183z"/>
<path d="M1260 3495 l0 -2245 2245 0 2245 0 0 2245 0 2245 -2245 0 -2245 0 0
-2245z m2685 1906 c401 -62 668 -205 766 -408 28 -58 34 -82 37 -158 8 -177
-57 -331 -218 -515 -151 -172 -213 -268 -248 -382 -24 -77 -36 -185 -27 -238
l7 -40 138 0 c160 0 205 -12 264 -68 120 -115 114 -312 -12 -409 -66 -50 -125
-63 -284 -63 l-139 0 6 -87 c26 -348 171 -673 408 -918 l93 -95 369 -2 370 -3
3 -223 3 -222 -1976 0 -1975 0 0 225 0 225 368 0 367 1 45 42 c263 247 431
599 456 955 l7 102 -140 0 c-171 0 -226 14 -290 73 -55 51 -81 99 -89 170 -13
106 47 220 140 270 36 19 59 22 200 25 l159 4 -5 111 c-9 180 -59 294 -208
469 -47 55 -105 123 -128 152 -24 28 -64 92 -88 143 -137 282 -80 504 172 672
163 109 416 184 714 211 165 15 587 4 735 -19z"/>
<path d="M2323 1133 c654 -2 1720 -2 2370 0 650 1 116 2 -1188 2 -1303 0
-1835 -1 -1182 -2z"/>
</g>
</svg>
