<?xml version="1.0" standalone="no"?>
<!DOCTYPE svg PUBLIC "-//W3C//DTD SVG 20010904//EN"
 "http://www.w3.org/TR/2001/REC-SVG-20010904/DTD/svg10.dtd">
<svg version="1.0" xmlns="http://www.w3.org/2000/svg"
 width="800.000000pt" height="800.000000pt" viewBox="0 0 800.000000 800.000000"
 preserveAspectRatio="xMidYMid meet">

<g transform="translate(0.000000,800.000000) scale(0.100000,-0.100000)"
fill="#000000" stroke="none">
<path d="M1655 6338 c-3 -7 -4 -1064 -3 -2348 l3 -2335 2348 -3 2347 -2 -2
2347 -3 2348 -2343 3 c-1869 2 -2344 0 -2347 -10z m2750 -838 c260 -38 441
-106 560 -213 155 -138 206 -336 134 -518 -26 -68 -109 -186 -171 -246 -115
-112 -192 -269 -233 -475 -9 -46 -18 -90 -21 -99 -4 -15 12 -17 138 -22 163
-5 202 -16 262 -69 103 -90 78 -240 -52 -311 -54 -29 -157 -47 -279 -47 -52 0
-63 -3 -63 -16 0 -39 55 -259 96 -384 94 -285 220 -485 369 -584 l40 -26 297
0 298 0 0 -220 0 -221 -1777 3 -1778 3 -3 213 -2 212 298 0 298 0 45 28 c161
103 315 407 424 837 39 155 45 145 -85 145 -176 0 -238 21 -303 103 -61 76
-44 200 36 261 54 42 109 55 253 62 l134 7 0 54 c0 121 -54 289 -128 395 -17
24 -67 84 -112 133 -94 103 -156 193 -191 280 -19 48 -24 78 -24 150 1 80 4
98 32 157 40 86 74 129 148 185 176 134 475 223 815 242 139 7 435 -3 545 -19z"/>
</g>
</svg>
